<?xml version="1.0" encoding="UTF-8" standalone="no" ?>
<!DOCTYPE svg PUBLIC "-//W3C//DTD SVG 1.1//EN" "http://www.w3.org/Graphics/SVG/1.1/DTD/svg11.dtd">
<svg xmlns="http://www.w3.org/2000/svg" xmlns:xlink="http://www.w3.org/1999/xlink" version="1.1" width="400" height="400" viewBox="0 0 400 400" xml:space="preserve">
<desc>Created with Fabric.js 3.6.2</desc>
<defs>
</defs>
<g transform="matrix(0.39 0 0 0.39 200 200)"  >
<path style="stroke: none; stroke-width: 1; stroke-dasharray: none; stroke-linecap: butt; stroke-dashoffset: 0; stroke-linejoin: round; stroke-miterlimit: 2; fill: rgb(23,119,242); fill-rule: evenodd; opacity: 1;"  transform=" translate(-256, -256)" d="M 449.446 0 c 34.525 0 62.554 28.03 62.554 62.554 l 0 386.892 c 0 34.524 -28.03 62.554 -62.554 62.554 l -106.468 0 l 0 -192.915 l 66.6 0 l 12.672 -82.621 l -79.272 0 l 0 -53.617 c 0 -22.603 11.073 -44.636 46.58 -44.636 l 36.042 0 l 0 -70.34 c 0 0 -32.71 -5.582 -63.982 -5.582 c -65.288 0 -107.96 39.569 -107.96 111.204 l 0 62.971 l -72.573 0 l 0 82.621 l 72.573 0 l 0 192.915 l -191.104 0 c -34.524 0 -62.554 -28.03 -62.554 -62.554 l 0 -386.892 c 0 -34.524 28.029 -62.554 62.554 -62.554 l 386.892 0 Z" stroke-linecap="round" />
</g>
</svg>