<?xml version="1.0" encoding="UTF-8" standalone="no" ?>
<!DOCTYPE svg PUBLIC "-//W3C//DTD SVG 1.1//EN" "http://www.w3.org/Graphics/SVG/1.1/DTD/svg11.dtd">
<svg xmlns="http://www.w3.org/2000/svg" xmlns:xlink="http://www.w3.org/1999/xlink" version="1.1" width="400" height="400" viewBox="0 0 400 400" xml:space="preserve">
<desc>Created with Fabric.js 3.6.2</desc>
<defs>
</defs>
<g transform="matrix(4.17 0 0 4.17 200 200)" id="_Group_"  >
<path style="stroke: none; stroke-width: 1; stroke-dasharray: none; stroke-linecap: butt; stroke-dashoffset: 0; stroke-linejoin: miter; stroke-miterlimit: 4; fill: rgb(250,92,102); fill-rule: nonzero; opacity: 1;"  transform=" translate(-24, -24)" d="M 6 37 v 3 H 4 a 3 3 0 0 1 -3 -3 V 11 A 3 3 0 0 1 4 8 H 7 L 24 23 L 41 8 h 3 a 3 3 0 0 1 3 3 V 37 a 3 3 0 0 1 -3 3 H 42 V 13 L 24 29 L 6 13 Z" stroke-linecap="round" />
</g>
<g transform="matrix(4.17 0 0 4.17 200 210.42)" id="_Group_"  >
<polygon style="stroke: none; stroke-width: 1; stroke-dasharray: none; stroke-linecap: butt; stroke-dashoffset: 0; stroke-linejoin: miter; stroke-miterlimit: 4; fill: rgb(241,242,242); fill-rule: nonzero; opacity: 1;"  points="18,9.5 18,13.5 -18,13.5 -18,13.47 -18,10.5 -18,-13.5 0,2.5 18,-13.5 18,9.5 " />
</g>
<g transform="matrix(4.17 0 0 4.17 200 164.58)" id="_Group_"  >
<polygon style="stroke: none; stroke-width: 1; stroke-dasharray: none; stroke-linecap: butt; stroke-dashoffset: 0; stroke-linejoin: miter; stroke-miterlimit: 4; fill: rgb(241,242,242); fill-rule: nonzero; opacity: 1;"  points="17,-7.5 0,7.5 -17,-7.5 17,-7.5 " />
</g>
<g transform="matrix(4.17 0 0 4.17 200 202.08)" id="_Group_"  >
<path style="stroke: none; stroke-width: 1; stroke-dasharray: none; stroke-linecap: butt; stroke-dashoffset: 0; stroke-linejoin: miter; stroke-miterlimit: 4; fill: rgb(233,61,91); fill-rule: nonzero; opacity: 1;"  transform=" translate(-24, -24.5)" d="M 42 37 a 1 1 0 0 1 -1 -1 V 15.227 L 24.665 29.747 a 1 1 0 0 1 -1.33 0 L 7 15.227 V 36 a 1 1 0 0 1 -2 0 V 13 a 1 1 0 0 1 1.665 -0.748 L 24 27.662 l 17.335 -15.41 A 1 1 0 0 1 43 13 V 36 A 1 1 0 0 1 42 37 Z" stroke-linecap="round" />
</g>
</svg>